<svg xmlns="http://www.w3.org/2000/svg" viewBox="0 0 311.72 359.32"><g id="acd4ac9b-0ef5-4a35-b4c5-03c6b973d254" data-name="Capa 2"><g id="aeefd301-335a-43f7-9c8a-3a5741834e26" data-name="Capa 1"><path d="M206.48,359.32c-5.44-1.17-11-1.95-16.28-3.62a53.21,53.21,0,0,0-16.52-2.17q-82.11.09-164.23,0c-1.73,0-3.84.24-5.11-.62-1.73-1.18-2.93-3.23-4.15-5.05-.38-.57-.08-1.6-.08-2.42q0-160.32,0-320.66C.12,12.36,7.61,2.94,19.53.39A23.35,23.35,0,0,1,24.41,0q113.52,0,227,0a23.93,23.93,0,0,1,24.39,23.73c.19,7.71.1,15.44,0,23.15,0,4.75-2.43,7.07-7.19,7.1-8.3,0-16.61,0-24.91,0h-3.81v4.1q0,54.39-.06,108.76c0,2.83.64,4.14,3.62,5.12,37.14,12.21,60,37.55,66.77,76,9.05,51.27-25.2,99.84-76.35,109.75-2.83.55-5.66,1.06-8.49,1.58Zm21.14-191v-4.49c0-38.71-.16-77.42.1-116.14.08-11.87-2.14-24,2.85-35.75H26.69c-10,0-14.56,4.54-14.56,14.56V341H158.85c-41.52-31.18-46.16-83-30.53-117.08C143.07,191.66,179.28,163.11,227.62,168.35Zm72,95.5c.51-45.64-37.11-83.92-83.24-84.1A83.79,83.79,0,0,0,215,347.32C261.22,348,299.09,310.54,299.61,263.85ZM263.35,41.65c0-6.88.35-13.53-.11-20.13-.35-5.23-5.88-9.43-11.36-9.53s-11.18,4.06-11.58,9.25c-.52,6.7-.13,13.46-.13,20.41Z"/><path d="M66.25,137.51V125.86H209.66v11.65Z"/><path d="M155.83,149.79v11.78H30.25V149.79Z"/><path d="M132.23,53.76c-1.52-4.84-3.29-6.5-7.09-5.59a7.94,7.94,0,0,0-4.78,3.74c-1.09,2.31.35,4.5,2.73,5.7,3.21,1.64,6.41,3.33,9.68,4.86,7.08,3.32,11.34,8.64,11.14,16.65-.19,7.83-4.52,13-11.85,16v6.42H120.43c-.1-.12-.37-.3-.36-.46.45-4.08-1.11-6.47-4.9-8.65-5.1-2.93-7.38-8.13-7.12-14.4h11.64c1.28,4.79,2.91,6.27,7.27,5.45a7.44,7.44,0,0,0,4.47-3.54c1.15-2.18,0-4.37-2.24-5.56-3.58-1.94-7.23-3.77-10.9-5.55C111.7,65.62,108,60.43,108,53.08c0-7.2,3.6-12.31,9.93-15.68a5.22,5.22,0,0,0,1.92-3.1,16.89,16.89,0,0,0,.08-4.14h12.26c-1.51,5,1.39,7.11,5.07,9.5,4.74,3.07,6.84,8.08,6.7,14.1Z"/><path d="M119.9,203.74v11.69H30.28V203.74Z"/><path d="M119.91,311.62v11.69H30.28V311.62Z"/><path d="M30.14,269.23V257.81h77.79v11.42Z"/><path d="M131.78,191.48H66.24V179.94h65.54Z"/><path d="M108,287.59v11.77H66.23V287.59Z"/><path d="M108,233.82v11.49H66.3V233.82Z"/><path d="M54,287.65v11.73H42.3V287.65Z"/><path d="M42.27,137.62V125.84H53.85v11.78Z"/><path d="M42.3,179.79H53.91v11.63H42.3Z"/><path d="M54,233.81v11.58H42.31V233.81Z"/><path d="M176.64,323.59l6.4-9.86c18,10.73,36.78,12.83,56.22,4.74a57.53,57.53,0,0,0,29.54-27.25,59.84,59.84,0,0,0-16.11-74.8c-22.06-17.48-54-16.83-75.69,1.57-21,17.83-28.8,50.13-11.38,78.25l-9.74,6.39c-16.74-22.92-18-63.41,9.61-90.55,27.15-26.67,71.13-27.37,98.79-1.7C293,237,295.8,280.5,270.76,310S203.88,342.33,176.64,323.59Z"/><path d="M181.81,279.73l8.68-8.28,13.21,14.08,40.82-40.84,8.18,8.3c-.25.29-.58.75-1,1.14Q230.3,275.58,208.83,297c-3.13,3.12-6.16,3.63-8.94,1C193.75,292.07,187.89,285.89,181.81,279.73Z"/></g></g></svg>