<svg xmlns="http://www.w3.org/2000/svg" viewBox="0 0 308.65 384"><g id="b588f59f-6846-41b5-9e87-83fb21cf7ade" data-name="Capa 2"><g id="b1683f56-54eb-48de-9dd9-0e92186ccf68" data-name="Capa 1"><path d="M271.76,0c4,2.62,5.24,6.33,5.23,11.09-.11,59.87-.05,119.74-.13,179.6,0,2.92.72,4.69,3.38,6.23,7.54,4.38,14.83,9.19,22.3,13.7a11.23,11.23,0,0,1,6,10.79c-.21,7.61,0,15.24-.07,22.87,0,4-2.15,6.6-5.48,6.69s-5.71-2.54-5.73-6.81c0-6.87.12-13.75-.11-20.62a5.69,5.69,0,0,0-2.21-4q-35-22-70.22-43.59a5.23,5.23,0,0,0-4.55,0c-23.38,14.33-46.65,28.82-70,43.24a4.59,4.59,0,0,0-2.56,4.44c.1,19.38-.09,38.75.11,58.12.17,17.83,7.05,32.68,20.68,44.3q26.35,22.47,52.68,45c.37.32.79.59,1.45,1.07q12.51-10.65,25-21.3c9.59-8.18,19.15-16.4,28.76-24.56,13.86-11.79,20.64-26.87,20.93-45,.05-3.37-.09-6.75.05-10.12a5.44,5.44,0,0,1,5.6-5.37c3,.24,5.31,1.84,5.52,5.08,1.25,19.49-1.57,38.1-14.63,53.46-6.18,7.27-13.67,13.47-20.89,19.78C259.05,356.16,245,368,231,379.86c-1.78,1.51-3.79,2.77-5.69,4.14h-6c-10.89-9.1-21.73-18.25-32.73-27.22a9.62,9.62,0,0,0-5.61-2c-33.93-.13-67.87-.09-101.8-.09-1,0-2,0-3,0-3.65-.21-6.22-2.51-6.33-5.63s2.35-5.56,6-5.9c1.24-.12,2.49-.06,3.74-.06h89.75l.65-.76c-16.12-11.95-28.57-26.39-32.4-46.92H53.28c-5.81,0-8.78-2-8.82-5.8s2.92-5.83,8.74-5.83h82.86V269.1H54.3c-.87,0-1.75,0-2.62,0-4.46-.13-7.26-2.42-7.22-5.9s2.81-5.72,7.34-5.72q39.87,0,79.73,0h4.56V242.85H54.57c-.87,0-1.74,0-2.62,0-4.71-.09-7.61-2.42-7.49-6s2.87-5.61,7.45-5.61q39.68,0,79.35,0h4.87V216.6H114.82c-.88,0-1.75,0-2.62,0-4.4-.15-7.25-2.55-7.13-6s2.83-5.59,7.08-5.61c12.11,0,24.21.05,36.31-.08a11.82,11.82,0,0,0,5.55-1.58,204.55,204.55,0,0,0,19.65-13H53.49c-6.09,0-9.13-2-9-6s3-5.67,8.9-5.67q59.88,0,119.77,0c5.83,0,7.87,2.06,7.62,8.06,3-1.87,5.83-3.57,8.61-5.29,7.52-4.67,15.08-9.26,22.51-14.08a5.3,5.3,0,0,0,2.16-3.71q.16-49.31.08-98.61c0-.6-.08-1.2-.14-2H11.5V343h4c10.73,0,21.46,0,32.19,0,4.6,0,7.33,2.2,7.4,5.68s-2.84,5.89-7.56,5.9c-12.73,0-25.46,0-38.18,0C3,354.6,0,351.54,0,345.21V60.62c0-6.23,2.83-9.11,9.14-9.21,5.34-.09,10.68,0,16.39,0,0-5.38,0-10.35,0-15.32,0-7.53,2.91-10.47,10.32-10.49H51.26c0-5.28.14-10.23,0-15.18C51.05,5.72,52.51,2.11,56.89,0ZM62.94,25.58H241.05c6.54,0,10,2.61,10,8.42.19,14,.13,28,0,42,0,3.78-2.49,6.21-5.64,6.23s-5.7-2.64-5.78-6.52c-.09-4.37,0-8.75,0-13.12V37.38H37.27v14H214.41c8.58,0,10.94,2.34,10.94,10.79q0,48.75,0,97.49c0,1.2-.13,3.05.53,3.49,4.3,2.83,8.81,5.36,13.75,8.29V166.7q0-30.55,0-61.12a15.92,15.92,0,0,1,.26-4.09c.77-2.84,2.8-4.56,5.74-4.4A5.24,5.24,0,0,1,251,102a35.19,35.19,0,0,1,.21,4.48q0,34.31,0,68.62c0,1.33-.13,3.34.62,3.88,4.16,3,8.58,5.55,13.36,8.56v-176H62.94Z"/><path d="M112.63,126.21h59.08c1.12,0,2.25-.07,3.36,0,3.4.33,5.81,2.72,5.84,5.7s-2.35,5.4-5.75,5.82a24.66,24.66,0,0,1-3,.07H53.28c-5.81,0-8.78-2-8.82-5.79s2.92-5.84,8.72-5.84Z"/><path d="M113.12,152.46q29.53,0,59.07,0a19.19,19.19,0,0,1,4.09.25,5.37,5.37,0,0,1,4.56,5.59,5.28,5.28,0,0,1-4.34,5.39,17.8,17.8,0,0,1-4.06.38q-59.83,0-119.65,0a17.23,17.23,0,0,1-4.06-.42,5.59,5.59,0,0,1,.12-10.86,17.81,17.81,0,0,1,4.07-.33Q83,152.44,113.12,152.46Z"/><path d="M113.09,88q17,0,34,0a17.74,17.74,0,0,1,4.06.37c2.78.67,4.59,2.84,4.11,5.41-.37,2-2.24,3.87-3.91,5.23-1,.79-2.86.59-4.33.59q-34.38.06-68.75,0a17.8,17.8,0,0,1-3.35-.2c-3.07-.6-5-2.57-4.93-5.67,0-3.3,2.11-5.21,5.36-5.68a19.85,19.85,0,0,1,3-.08Z"/><path d="M71.42,216.59c-6.72,0-13.44.09-20.16,0-4.66-.08-7.49-3.21-6.59-7A5.49,5.49,0,0,1,50.31,205q21.09-.15,42.18,0a5.83,5.83,0,0,1,6.06,5.82c-.06,3.1-2.55,5.61-6.23,5.69-7,.15-13.94,0-20.9,0Z"/><path d="M222.5,211.51a51.6,51.6,0,0,1,0,103.2c-28.22.12-51.71-23.35-51.71-51.66A51.66,51.66,0,0,1,222.5,211.51Zm-40.08,51.6a40.07,40.07,0,1,0,80.14-.14,40.07,40.07,0,1,0-80.14.14Z"/><path d="M220.46,267.27c5.77-5.87,11.18-11.39,16.61-16.89,2-2.08,4.7-3.16,7-1.22,1.53,1.31,2.41,3.81,2.79,5.92.19,1.08-1.15,2.68-2.15,3.7q-9.67,9.9-19.53,19.62c-3.2,3.16-6.19,3.1-9.44-.06q-6.15-6-12.16-12.19c-2.84-2.91-3-6.19-.69-8.6,2.5-2.57,5.73-2.38,8.82.67C214.53,261,217.25,263.94,220.46,267.27Z"/></g></g></svg>