<svg xmlns="http://www.w3.org/2000/svg" viewBox="0 0 360.41 360.39"><defs><style>.e05030c4-ab22-4b15-b315-d70d45d5d721{fill:#09090b;}.a49d56bc-7e63-40c2-9cf6-c2f2ab60cf4e{fill:#fdfcfd;}</style></defs><g id="eaf63172-85bd-48da-aacc-c82d743a6205" data-name="Capa 2"><g id="e50fd956-896a-4d19-89cb-c7e2e26484a4" data-name="Capa 1"><path class="e05030c4-ab22-4b15-b315-d70d45d5d721" d="M180.84,360.39q-17.4,0-34.79,0c-5.15,0-7.13-2-7.14-7.26,0-12.72-.06-25.44.05-38.15,0-2.19-.55-3.33-2.72-3.94a81.09,81.09,0,0,1-15.8-6.47c-2.2-1.15-3.38-.7-5,1C106.7,314.43,97.85,323.2,89,332c-4.18,4.17-6.94,4.22-11.08,0-13-13.3-27-25.57-38.6-40.15-19.08-24-31.6-51-36.58-81.27C-6.43,154.69,7.39,104.88,44,61.94,71.65,29.6,107,9.82,149,2.76c53.82-9,102.05,4.18,144.59,38.11C308,52.32,320,66.29,333.11,79.1c3,2.91,2.63,6.19-.64,9.48-9,9-17.92,18-27,26.94-1.72,1.68-2,2.89-.83,5A85.68,85.68,0,0,1,311,136c.66,2.18,1.62,3,4.08,3,12.72-.17,25.44-.09,38.16-.07,5.16,0,7.15,2,7.15,7.25q0,34.59,0,69.2c0,5.41-2,7.34-7.44,7.34-12.72,0-25.44.06-38.15-.05-2.07,0-3.08.53-3.68,2.54a90.26,90.26,0,0,1-6.8,16.47c-.93,1.76-.57,2.77.78,4.1,9,8.84,17.85,17.77,26.74,26.69,4.36,4.38,4.37,7,0,11.36Q307.81,307.91,283.73,332c-4.33,4.32-6.91,4.27-11.35-.16C263.55,323,254.69,314.2,246,305.3c-1.58-1.61-2.75-1.8-4.73-.75a83.86,83.86,0,0,1-15.78,6.5c-2.07.6-2.82,1.59-2.79,3.86.13,12.72.07,25.44.06,38.16,0,5.39-2,7.31-7.47,7.32ZM182,37.13c-25.88.42-48.79,6.06-70.14,17.75-51.25,28.05-81.29,85.39-73.3,144.63a143,143,0,0,0,34.31,75.94c1.91,2.2,2.78,2.1,4.74.11,14.1-14.29,28.34-28.45,42.54-42.64,4.21-4.21,6.85-4.24,11.14-.3,17.59,16.1,38.39,22.56,61.68,18.28,27.06-5,46.1-20.92,55-47,9.12-26.6,3.7-51-15-72.18-4.36-4.95-4.43-7.24.29-12q21.16-21.17,42.37-42.28c1.78-1.76,2-2.65-.05-4.46C248.28,49.24,216.4,37.7,182,37.13Zm-1.3,311.28c9.1,0,18.21-.09,27.31.07,2.38,0,2.85-.68,2.83-2.92-.12-12.21-.06-24.43-.06-36.65,0-4.7,1.13-6.31,5.46-7.6a132.47,132.47,0,0,0,24.38-10c4.52-2.43,6.36-2.13,9.92,1.41,8.56,8.54,17.15,17.05,25.62,25.69,1.59,1.63,2.4,1.71,4.06,0q18.92-19.16,38.08-38.09c1.69-1.68,1.86-2.57.05-4.33-8.66-8.45-17.16-17.05-25.7-25.61-3.37-3.38-3.7-5.37-1.43-9.63A125.41,125.41,0,0,0,301.32,216c1.08-3.74,3.37-5.4,7.38-5.35,12.22.14,24.44,0,36.66.1,2.31,0,3.15-.4,3.13-3q-.19-26.92,0-53.86c0-2.81-.95-3.14-3.38-3.12-12.1.12-24.19.07-36.29,0-4.65,0-6.15-1.06-7.52-5.55A135.45,135.45,0,0,0,291.25,121c-2.39-4.47-2.06-6.31,1.53-9.91,8.46-8.47,16.89-17,25.42-25.36,1.6-1.58,2.14-2.51.16-4.33-4.39-4.06-8.64-8.3-12.69-12.69-1.82-2-2.76-1.44-4.34.15q-27.43,27.59-55,55c-1.71,1.71-1.59,2.64-.19,4.42,16.86,21.51,22.27,45.7,16.2,72.29-8,34.9-39.68,61.81-75.15,63.95-22,1.33-41.78-4.61-59-18.5-1.36-1.09-2.21-1.79-3.88-.11q-27.79,28-55.8,55.82c-1.59,1.58-1.34,2.38.12,3.78,4.32,4.14,8.61,8.32,12.67,12.72,1.88,2,2.88,1.64,4.61-.13,8.46-8.64,17.11-17.1,25.59-25.72,2.78-2.83,5.67-3.29,9-1.42a121.88,121.88,0,0,0,25,10.34c3.95,1.15,5.5,3.58,5.44,7.7-.16,12.09,0,24.19-.12,36.28,0,2.68.71,3.27,3.28,3.22C163,348.31,171.81,348.41,180.66,348.41ZM13.24,176.47a182.1,182.1,0,0,0,2,29.51C20,237.1,32.64,264.57,52.72,288.7c5.26,6.32,5.19,6.13,11.09.64,2.37-2.21,2.26-3.4.19-5.8-31.13-36.2-43.57-78.16-37-125.33A148.27,148.27,0,0,1,69.92,72c35.44-35.43,78.47-50.65,128.21-45.75,30.67,3,58,15,81.9,34.5,2.23,1.83,4.12,5.6,6.81,5,2.49-.58,4.25-4,6.48-6,1.44-1.28,1.17-2-.15-3.16a168.06,168.06,0,0,0-18.52-14.49c-37.81-25-79-33.85-123.73-26A161.45,161.45,0,0,0,66.56,58.41C32.7,90.31,15.35,129.84,13.24,176.47Z"/><path class="e05030c4-ab22-4b15-b315-d70d45d5d721" d="M174.82,123.26V93c0-5.51,1.92-8,6.09-7.94,4,.06,5.89,2.59,5.89,7.77,0,20.44,0,40.88,0,61.32,0,2.35.37,3.57,3,4.53,10.21,3.8,16.28,14.4,15,25.34-1.24,10.38-10.17,19.35-20.6,20.68a24,24,0,0,1-25.4-14.88c-.94-2.46-2-3.08-4.48-3.06-12.71.13-25.42.07-38.14.06-4.5,0-7-2.09-7.09-5.81-.1-3.94,2.43-6.15,7.11-6.16,12.84,0,25.68-.05,38.51,0,2.14,0,3.17-.48,4-2.7a21.86,21.86,0,0,1,13.19-13.41c2.71-1,3.12-2.38,3.1-4.84C174.76,143.7,174.82,133.48,174.82,123.26Zm5.5,69.48c6.19.4,12.09-5,12.43-11.44s-5-12-11.45-12.41c-6.25-.38-12,5-12.42,11.43C168.51,186.55,173.83,192.33,180.32,192.74Z"/><path class="e05030c4-ab22-4b15-b315-d70d45d5d721" d="M182.73,240.79c-17.94-.22-31.53-5.73-43.06-16.4-1.29-1.19-2.59-2.43-2.91-4.23-.52-2.86.4-5.27,3-6.62s5.28-.88,7.5,1.3a49.06,49.06,0,0,0,22.78,12.78c29,7.3,58.12-15,58.76-44.87a47.55,47.55,0,0,0-13.93-35.4c-2.17-2.24-2.74-4.76-1.4-7.48a5.69,5.69,0,0,1,6.22-3.17,7,7,0,0,1,4.35,2.65c15.28,16.92,20.53,36.55,14.07,58.41C231.73,219.45,216.8,233.12,195,239,190.28,240.31,185.44,241,182.73,240.79Z"/><path class="e05030c4-ab22-4b15-b315-d70d45d5d721" d="M67.92,252.61c-3.82.14-5.68-1.26-6.7-3.55-1.1-2.48-.8-5.19,1.47-6.73A103.79,103.79,0,0,1,75.16,235c2.35-1.16,4.93-.37,6.68,1.83s2.28,4.85.43,6.84C78.08,248.19,72.44,250.48,67.92,252.61Z"/><path class="e05030c4-ab22-4b15-b315-d70d45d5d721" d="M77.23,127a5.34,5.34,0,0,1-2.88-.66c-3.54-2.06-7.19-4-10.64-6.15A5.88,5.88,0,0,1,61.5,112a6,6,0,0,1,8.4-2.23c3.61,1.94,7.19,4,10.61,6.2a5.47,5.47,0,0,1,2.3,6.85A5.67,5.67,0,0,1,77.23,127Z"/><path class="e05030c4-ab22-4b15-b315-d70d45d5d721" d="M114.79,60.73a6,6,0,0,1,5.33,2.91c2.09,3.52,4.2,7,6.08,10.66A5.86,5.86,0,0,1,124,82.37a5.75,5.75,0,0,1-7.89-1.82,104.13,104.13,0,0,1-6.51-11.26A6,6,0,0,1,114.79,60.73Z"/><path class="e05030c4-ab22-4b15-b315-d70d45d5d721" d="M240.58,83.23a6,6,0,0,1-5.33-8.53,105.11,105.11,0,0,1,6.46-11.29,6,6,0,0,1,10.41,5.83c-2,3.86-4.24,7.57-6.48,11.29A6,6,0,0,1,240.58,83.23Z"/><path class="e05030c4-ab22-4b15-b315-d70d45d5d721" d="M186.8,55.14c0,2.12.1,4.25,0,6.36a5.76,5.76,0,0,1-6.18,5.59,5.68,5.68,0,0,1-5.73-5.65q-.2-6.36,0-12.72a5.65,5.65,0,0,1,5.79-5.58,5.75,5.75,0,0,1,6.12,5.65C186.89,50.9,186.8,53,186.8,55.14Z"/><path class="e05030c4-ab22-4b15-b315-d70d45d5d721" d="M55,186.8c-2,0-4,.07-6,0a5.75,5.75,0,0,1-5.87-5.89,5.67,5.67,0,0,1,5.72-6c4.24-.12,8.48-.14,12.72,0a5.65,5.65,0,0,1,5.51,5.87,5.73,5.73,0,0,1-5.36,6C59.49,186.92,57.23,186.79,55,186.8Z"/><path class="e05030c4-ab22-4b15-b315-d70d45d5d721" d="M286.51,277.59c2.63,2.75,4.75,5.18,7.1,7.37,1.47,1.37,1.16,2.15-.1,3.46-7.16,7.46-7.88,7.43-14.46-.67-.86-1.07-.66-1.5.14-2.33C281.6,282.94,283.92,280.37,286.51,277.59Z"/><path class="e05030c4-ab22-4b15-b315-d70d45d5d721" d="M336.46,181c0,5.83,0,5.83-5.77,5.83-6.21,0-6.21,0-6.21-6.14,0-5.83,0-5.83,5.77-5.83C336.46,174.83,336.46,174.83,336.46,181Z"/><path class="e05030c4-ab22-4b15-b315-d70d45d5d721" d="M186.8,330.75c0,5.7,0,5.7-5.91,5.7-6.07,0-6.07,0-6.07-5.92s0-6.06,5.92-6.06S186.8,324.47,186.8,330.75Z"/><path class="a49d56bc-7e63-40c2-9cf6-c2f2ab60cf4e" d="M180.32,192.74c-6.49-.41-11.81-6.19-11.44-12.42.38-6.48,6.17-11.81,12.42-11.43,6.49.4,11.79,6.14,11.45,12.41S186.51,193.14,180.32,192.74Z"/></g></g></svg>