<svg xmlns="http://www.w3.org/2000/svg" viewBox="0 0 320.49 383.27"><defs><style>.a4b212de-7be2-4a3f-b48f-c47778659da4{fill:#fff;}</style></defs><g id="e3ad1ac8-0b1a-4c0e-bfab-d9b489ff3c89" data-name="Capa 2"><g id="e30a98eb-4aec-4682-9eae-d32178425b37" data-name="Capa 1"><path d="M304,0C305,.46,306,1,307,1.38a20.91,20.91,0,0,1,13.52,19.68q0,170.61,0,341.22a20.83,20.83,0,0,1-20.89,21q-121.78,0-243.57,0c-26.73,0-51.68-22.37-55.09-48.9a86.79,86.79,0,0,1-.74-11.16c0-87.68.24-175.36-.18-263C-.15,28.61,22.81,4.12,49.68.59A5.33,5.33,0,0,0,51,0ZM11.41,290.62C25.3,273.57,42.32,266.91,63,267c75.34.33,150.69.11,226,.17,6.65,0,13.3.55,20.17.86v-2.11q0-121.24,0-242.49c0-8.52-3.77-12.2-12.42-12.2q-118.62,0-237.24,0a50.43,50.43,0,0,0-10.76,1.07c-22.56,5-37.36,23.7-37.37,47.24q0,113.38,0,226.77ZM62,352.43c-1.58,0-3,.05-4.3,0-18.36-.8-30.77-18.19-25.32-35.44,3.69-11.69,14.2-19,27.45-19H296c1.37,0,2.75.06,4.11,0a9.62,9.62,0,0,0,8.58-12.26c-1.37-4.88-5-7.23-11.22-7.23q-119.37,0-238.75,0a54.78,54.78,0,0,0-7.44.63C24.91,282.72,6.72,309,12.62,335c5,22.2,23.65,37,46.73,37.05q118.82.06,237.64,0a23,23,0,0,0,3-.09c5.38-.68,9.37-5.07,9.18-10.06-.21-5.38-4.37-9.32-10.12-9.39-6.36-.09-12.72,0-19.09,0-4.11,0-8.23.07-12.34,0s-6.46-2.36-6.48-5.73,2.3-5.57,6.43-5.8c1.86-.1,3.74,0,5.61,0h11.88a48.79,48.79,0,0,1-.18-31.24H127.65v31.24H241.31c5.78,0,8.79,2,8.72,5.86s-3,5.72-8.86,5.72H127.59c-.67,8-3.09,12.14-8.38,14.31-6,2.49-11.14.51-15.8-3.52a42.3,42.3,0,0,0-6.54-5,4.69,4.69,0,0,0-4.09.05c-3.13,2-5.74,4.92-9,6.66a19.64,19.64,0,0,1-9.4,2.59C67.07,367.3,63.07,362.12,62,352.43Zm54.08-42.76H73.67c0,14.94-.07,29.62.06,44.3,0,2.65,1.83,3.07,3.86,1.55,2.89-2.17,5.66-4.51,8.55-6.66,5.83-4.34,11.72-4.31,17.54.07,2.79,2.1,5.44,4.37,8.24,6.45,2.45,1.81,4.11,1.11,4.12-1.9C116.13,339,116.08,324.57,116.08,309.67Zm-54-.1c-7.49-.61-13.58,1.16-17.34,7.64a15,15,0,0,0,.78,17.2c4,5.65,9.78,7.13,16.56,6.18Zm247-1.8c-3.46.57-6.65.94-9.74,1.7a4.64,4.64,0,0,0-2.81,2.3,33,33,0,0,0-.07,26.76,3.93,3.93,0,0,0,2.1,2.22c3.43.79,6.93,1.26,10.52,1.86Z"/><path d="M157.39,222.11c-7.61-3.84-15.49-7.24-22.76-11.64a20.2,20.2,0,0,1-6.7-28.38c6.07-9.71,18.6-12.93,28.39-6.45,7.46,4.94,15.32,6.12,23.83,5.57,7.58-.49,13.89-7.85,13.1-15.39-.45-4.29-3.38-6.46-7.08-7.84-6.17-2.29-12.5-4.23-18.52-6.87-6.25-2.74-12.58-5.58-18.23-9.34-16.82-11.2-24.08-32-18.62-51.62,1.28-4.6,3.77-6.6,7.18-5.8,3.73.87,5,3.77,3.84,8.59-4.32,17.72,2.11,32.82,17.91,41.88a57.06,57.06,0,0,0,7.32,3.7q10.75,4.26,21.61,8.22c11.93,4.34,17.11,12.07,15.78,23.83-1.22,10.85-10.78,20.55-21.55,21.79-11.33,1.31-22.06,0-31.8-6.64-5-3.39-10.61-2.12-13.42,2.38s-1.56,9.88,3.53,13.19c6.94,4.52,14.28,8.06,22.63,9.18,4,.53,5.56,2.5,5.81,6.53.1,1.62,0,3.26.26,4.85a9.08,9.08,0,0,0,9.32,8c4.62-.19,9.18-4,8.68-8.54-.87-8,2.82-11.26,9.87-14.39,25.31-11.22,33.38-44.09,16.48-64.69-5-6.14-11.61-10-19-12.77-8.71-3.3-17.4-6.69-25.91-10.46a16.32,16.32,0,0,1-10-13C157.6,95,164.58,85.79,175.59,84.6c8.95-1,16.63,1.75,23.67,7.13,6.23,4.76,13.93,2,15.3-5.31a8.41,8.41,0,0,0-3.81-9.1,111.7,111.7,0,0,0-15.22-8.55c-7-3-7.28-2.88-7.44-10.48-.11-5.35-3.26-9.18-8-9.67C174.63,48,169.74,51.47,170,57c.3,7.17-2.39,11.06-9.23,13-2.85.82-5.28,3.2-7.8,5-3.26,2.34-6.53,2.3-8.66-.3s-1.53-6,1.39-8.55a8.33,8.33,0,0,1,.87-.7c3.37-2.1,7.51-3.57,9.9-6.48s2.48-7.22,4.15-10.66c4-8.31,13.14-12.53,22.56-10.82,8.23,1.49,15.06,8.83,16.09,17.5.25,2.09,1.1,3.09,3,4.12,5.45,2.94,11.05,5.83,15.91,9.62a20.19,20.19,0,0,1,3.62,28.91c-7.2,9-19.46,10.56-29,3.45-4.41-3.29-9-5.78-14.74-5.27-3.21.28-6.25,1-7.19,4.73-1,4-.11,6.65,4.08,8.47,8.2,3.57,16.57,6.73,24.92,9.94,18,6.93,30.16,19.17,33.84,38.52,4.58,24.09-8.14,48.87-30.32,59.53-2.66,1.28-3.83,2.73-4.08,5.74-.81,9.75-8.93,17.7-18.2,18.26-11.21.68-20-5.72-22.31-16.2-.26-1.21-.55-2.41-.83-3.61Z"/><path d="M104.12,159.44A16.81,16.81,0,0,1,87,142.51,17,17,0,0,1,104,125.36a17.33,17.33,0,0,1,17.09,17.24A17,17,0,0,1,104.12,159.44Zm5.4-17a5.41,5.41,0,0,0-5.69-5.54,5.71,5.71,0,0,0-5.57,5.43,6,6,0,0,0,5.64,5.86A5.72,5.72,0,0,0,109.52,142.44Z"/><path d="M278.58,142.54a16.79,16.79,0,0,1-17.17,16.9,17,17,0,0,1-17-16.87,17.33,17.33,0,0,1,17.13-17.21A17,17,0,0,1,278.58,142.54Zm-16.84,5.65a6.05,6.05,0,0,0,5.56-5.95,5.72,5.72,0,0,0-6-5.33,5.4,5.4,0,0,0-5.24,5.62A5.73,5.73,0,0,0,261.74,148.19Z"/><path class="a4b212de-7be2-4a3f-b48f-c47778659da4" d="M109.52,142.44a5.72,5.72,0,0,1-5.62,5.75,6,6,0,0,1-5.64-5.86,5.71,5.71,0,0,1,5.57-5.43A5.41,5.41,0,0,1,109.52,142.44Z"/><path class="a4b212de-7be2-4a3f-b48f-c47778659da4" d="M261.74,148.19a5.73,5.73,0,0,1-5.71-5.66,5.4,5.4,0,0,1,5.24-5.62,5.72,5.72,0,0,1,6,5.33A6.05,6.05,0,0,1,261.74,148.19Z"/></g></g></svg>