<svg xmlns="http://www.w3.org/2000/svg" viewBox="0 0 140.05 134.66"><defs><style>.b34123ae-5b5c-4500-8135-bc715d1829a9{fill:#fff;}</style></defs><g id="bcc75c9a-e82b-46bb-88fc-566c55afecf9" data-name="Capa 2"><g id="eeeb8933-4e15-4995-bdfd-530540c70744" data-name="Capa 1"><path d="M140.05,126.72a4.06,4.06,0,0,1-4,2c-11.94-.06-23.89,0-35.83,0H98.4c0,.88,0,1.68,0,2.47-.1,2.52-1.14,3.53-3.66,3.53H58.09c-.27,0-.55,0-.82,0a2.1,2.1,0,0,1-1.93-2.1,2,2,0,0,1,2-2c1.54,0,3.07,0,4.67,0-.07-.26-.06-.41-.14-.5-1.89-2.13-1.41-4.23-.12-6.48a53.35,53.35,0,0,0,2.47-5.31,15.13,15.13,0,0,0,.5-2c-2.15.91-3.49-.2-4.89-1.1-2-1.29-4-2.6-6-3.84a1.56,1.56,0,0,0-1.31-.11,48.53,48.53,0,0,0-4.28,2.67,5.46,5.46,0,0,0-2.38,4.68v12c.72,0,1.34,0,2,0a2,2,0,1,1,0,4.09c-1,0-2,0-3,0A2.77,2.77,0,0,1,41.78,132c-.16-1-.13-2.09-.2-3.35H3.91c-3,0-3.9-.86-3.9-3.9,0-3.87,0-7.75,0-11.62A10.08,10.08,0,0,1,4.78,104c3.09-2,6.3-3.83,9.46-5.73l1.24-.77a50.25,50.25,0,0,1-3.69-6.24,17.49,17.49,0,0,1-1.34-6c-.19-4.5-.11-9,0-13.53a14.27,14.27,0,0,1,2.36-8,8.75,8.75,0,0,1,4.27-3.26A12.2,12.2,0,0,0,19.64,59a14.22,14.22,0,0,1,10.79-2.31c5.23.79,9.73,3,13,7.22A12.68,12.68,0,0,1,46.24,72c0,4-.12,8,0,12,.17,4.69-1.57,8.61-4.41,12.16l-1,1.16c2,1.23,4,2.38,6,3.61,2.16,1.35,4.27,2.78,6.42,4.13a1.26,1.26,0,0,0,1.05.09c1-.55,2-1.2,3.1-1.85a20.42,20.42,0,0,1-5-8.88,13.56,13.56,0,0,1-.43-3c0-5.1,0-10.21.25-15.3.14-3.11,1-6.31,3.68-8.06,3.18-2.08,6.37-4.36,10.16-5.28,7.64-1.87,17.42,2.65,20.52,9.59A16.59,16.59,0,0,1,88,78.39c.2,3.78,0,7.57.08,11.35a18.28,18.28,0,0,1-4.45,12.43l-.93,1.15c.07.07.09.11.13.13,1,.64,2.09,1.75,3.15,1.78s2-1.14,3-1.75l8.92-5.3c.42-.25.82-.53,1.29-.84a20.25,20.25,0,0,1-4.81-8.42,15.87,15.87,0,0,1-.49-3.49c0-4.37-.17-8.76,0-13.12a24.48,24.48,0,0,1,1.37-6.76,8.12,8.12,0,0,1,6-5.32,2,2,0,0,0,.87-.36c4.35-3.87,9.41-4,14.64-2.56s9.56,4.31,11.83,9.5a13.5,13.5,0,0,1,1.05,4.74c.14,4.19-.05,8.39.08,12.58a17.87,17.87,0,0,1-4.37,12c-.28.35-.58.7-.94,1.13a9,9,0,0,0,.85.64c2.5,1.49,5,3,7.53,4.43,3.51,1.93,6.27,4.45,7.28,8.49Zm-42-44a19,19,0,0,0,0,3.78c1.33,6.26,5.24,10.36,11.15,12.51a8.07,8.07,0,0,0,4.28.23c7.57-1.66,13.12-10,11.9-17.73a10.4,10.4,0,0,1-7.61-3c-.57-.52-1.17-1-1.71-1.57a9.63,9.63,0,0,0-7.85-3.06c-3.68.23-3-.67-4,3.23S101.9,82.18,98.05,82.72ZM42,81.51c-3.66.21-6.42-1.66-8.83-4.14a10.5,10.5,0,0,0-8.92-3.51c-2.8.25-2.6-.57-3.3,2.73-.74,3.53-2.39,6-6.41,6.09,0,1,0,2,0,3a4.23,4.23,0,0,0,.1.94A16.63,16.63,0,0,0,25.75,99a8.1,8.1,0,0,0,4.15.27C37.41,97.87,43.25,89.22,42,81.51Zm14.2,7.16a26.53,26.53,0,0,0,.42,4.87c1.51,5.44,5.11,9.11,10.26,11.29a8,8,0,0,0,6.37,0A16.74,16.74,0,0,0,83.28,94.18c.65-2.05.46-4.36.66-6.68a10.57,10.57,0,0,1-7.75-2.92c-.54-.5-1.12-1-1.62-1.48a9.93,9.93,0,0,0-8.46-3.24c-3,.22-2.75-.6-3.48,2.82S60.3,88.51,56.17,88.67Zm79.75,35.81c0-4.07.06-8,0-12a5.71,5.71,0,0,0-2.75-4.91c-1.22-.79-2.49-1.51-3.69-2.32a1.31,1.31,0,0,0-1.7,0c-2.22,1.5-4.44,3-6.76,4.36a22.17,22.17,0,0,1-3.76,1.28,3.53,3.53,0,0,0,.21,1.16,52.57,52.57,0,0,0,2.53,5.43c1.31,2.3,1.68,4.45-.16,6.62,0,0,0,.17,0,.31Zm-115.58,0a8,8,0,0,0-.6-1.15,3.81,3.81,0,0,1-.24-4.55c1.14-2.17,2.12-4.43,3.11-6.68a6.06,6.06,0,0,0,.23-1.56l-.39.34A26.31,26.31,0,0,1,19,109.65a45.07,45.07,0,0,1-3.81-2.41C11,104.53,11,104.55,7,107.53a5.57,5.57,0,0,0-2.69,4.37c-.1,4.17,0,8.35,0,12.57Zm55.15-7.53a6.51,6.51,0,0,0,.33,1.39c1,2.28,2,4.57,3.16,6.8a3.29,3.29,0,0,1-.18,3.8,14.84,14.84,0,0,0-.88,1.54H94.14V118.54a5.49,5.49,0,0,0-2.37-4.69c-1.25-.9-2.61-1.64-3.89-2.51a1.49,1.49,0,0,0-1.94,0c-2.21,1.52-4.45,3-6.77,4.35A20.28,20.28,0,0,1,75.49,116.94ZM97.7,78.33c1.47.18,2-.37,2.25-1.33.32-1.28.6-2.57,1-3.82a4.66,4.66,0,0,1,4.45-3.42c1.14-.06,2.28,0,3.42-.07a12.64,12.64,0,0,1,9.43,3.59c1.13,1,2.3,2.08,3.51,3a4.27,4.27,0,0,0,3.78.82c0-1.64,0-3.23,0-4.82a9.22,9.22,0,0,0-2.73-6.77,15.56,15.56,0,0,0-9.61-4.71c-3.3-.4-6.49-.09-8.88,2.71a1.78,1.78,0,0,1-1.07.52,5.17,5.17,0,0,0-4.75,4.73C98,71.92,98,75.11,97.7,78.33Zm-83.43,0c1.44.19,2-.34,2.22-1.32.34-1.32.63-2.66,1.07-3.94a4.23,4.23,0,0,1,3.32-3.14c5-.64,10-.57,13.93,3.34a43.8,43.8,0,0,0,3.51,3,4.29,4.29,0,0,0,3.81.83V72.34a9.47,9.47,0,0,0-2.82-6.89,15.66,15.66,0,0,0-9.51-4.62c-3.29-.4-6.49-.12-8.88,2.69a1.82,1.82,0,0,1-1.07.53,5.17,5.17,0,0,0-4.77,4.71C14.61,71.89,14.53,75.08,14.27,78.33ZM56,84.25c1.57.28,2-.46,2.25-1.41.35-1.31.65-2.64,1.08-3.93a4,4,0,0,1,3-2.91c4.53-.72,9-.83,12.89,2.24,1.43,1.13,2.74,2.4,4.13,3.57a4.93,4.93,0,0,0,4.38,1.34c0-1.77,0-3.54,0-5.3a8.17,8.17,0,0,0-2-5.53A15.64,15.64,0,0,0,69,66.72a7.83,7.83,0,0,0-6.2,2.64,2.17,2.17,0,0,1-1.28.69,4.92,4.92,0,0,0-4.61,4.34C56.41,77.64,56.31,81,56,84.25ZM41.25,124.46c.45-3.37.53-6.73,1.41-9.87,1-3.46,4.3-5,7.39-6.86-1.5-.91-2.78-1.76-4.14-2.46a1.86,1.86,0,0,0-1.53.08c-2.25,1.37-4.41,2.91-6.69,4.23a20.73,20.73,0,0,1-3.54,1.3l-.42-.33a6.52,6.52,0,0,0,.26,1.56A57.07,57.07,0,0,0,36.75,118c1.21,2.11,1.32,4-.26,5.89-.11.12-.11.32-.18.53ZM90,107.7l2.9,1.81a10.82,10.82,0,0,1,5.5,9.75c0,1.72,0,3.43,0,5.2h5.41a10.26,10.26,0,0,0-.69-1.27,3.63,3.63,0,0,1-.22-4.31c1.15-2.22,2.15-4.52,3.16-6.8a5.37,5.37,0,0,0,.21-1.57l-.4.34a18.74,18.74,0,0,1-3.42-1.21c-2.32-1.35-4.52-2.9-6.8-4.33a1.52,1.52,0,0,0-1.18-.22C93,105.86,91.65,106.73,90,107.7ZM70.35,130.55c2.13.81,3.31-.67,4.27-2.7a2,2,0,0,0,.09-2,27.9,27.9,0,0,1-1.91-4.21c-.56-1.73-1.57-2.39-3.31-2a.61.61,0,0,1-.27,0c-.75-.13-1.12.2-1.42.9-.8,1.88-1.71,3.71-2.53,5.58a1.71,1.71,0,0,0-.15,1.12C66.1,130,67,130.55,70.35,130.55Zm41.36-6.17c2.43.84,3.71-.37,4.53-2.4.05-.12.18-.23.19-.35a3.82,3.82,0,0,0,0-1.61c-.76-1.84-1.67-3.62-2.46-5.45a1.32,1.32,0,0,0-1.53-1,14.6,14.6,0,0,0-1.63,0,2,2,0,0,0-1.2.77c-1,1.9-1.83,3.85-2.69,5.8a1.48,1.48,0,0,0,0,1.11C107.92,123.26,108.74,125.59,111.71,124.38Zm-83,.15c2,.72,3.3-.59,4.16-2.61.07-.17.23-.31.26-.48a2.12,2.12,0,0,0,0-1.11c-.88-2-1.78-4.07-2.78-6-.69-1.38-2-.47-3.06-.63a1.4,1.4,0,0,0-1.08.7c-1,1.94-1.86,3.93-2.74,5.92a1.44,1.44,0,0,0-.07,1C24.54,124.14,25.14,124.53,28.67,124.53Zm54.2-16.13c-1.14-.68-2-1.24-2.93-1.75-.26-.14-.66-.31-.86-.21-1.58.83-3.12,1.73-4.74,2.65.8.86,1.51,1.69,2.31,2.42a1.22,1.22,0,0,0,1.11.18C79.43,110.68,81,109.6,82.87,108.4Zm-25.68,0c1.85,1.21,3.51,2.31,5.19,3.35a1,1,0,0,0,.92-.12c.84-.81,1.61-1.69,2.42-2.54-1.6-.91-3.09-1.77-4.59-2.58a.89.89,0,0,0-.75,0C59.36,107.07,58.37,107.69,57.19,108.4Zm50.28-5.32c-1.56-.86-3-1.68-4.49-2.47a1.11,1.11,0,0,0-.86-.1c-1.05.58-2.05,1.23-3.19,1.93l5.68,3.65Zm-83.44,0c-1.6-.89-3.1-1.74-4.61-2.55a.92.92,0,0,0-.74,0c-1.05.6-2.06,1.24-3.2,1.94l5.68,3.66Zm8.57,0,2.85,3,5.69-3.67C40,101.75,39,101.11,38,100.55a1,1,0,0,0-.86,0C35.64,101.37,34.15,102.22,32.6,103.09Zm92-.66c-1.16-.7-2.12-1.3-3.1-1.86a1,1,0,0,0-.74-.1c-1.57.84-3.12,1.73-4.73,2.63l2.93,3ZM28.24,104.7a10,10,0,0,1-1.2,1.24c-1.19.87-.83,2-.34,2.92.21.41,1.16.47,1.79.61a5.19,5.19,0,0,0,1.18,0C30.71,107,30.65,106.79,28.24,104.7Zm43.25,10.8c.8-2.89.7-3.19-1.53-4.68-2.47,2.46-2.35,1.53-1.32,4.68h2.85Zm41.65-6c1-2.42.93-2.74-1.38-4.68-2.34,1.91-2.51,2.52-1.32,4.68Z"/><path d="M96.11,27.44a27.4,27.4,0,1,1-53.9-7c.38-1.48,1.49-2.26,2.65-1.93s1.77,1.43,1.38,2.94a23.22,23.22,0,1,0,25.13-17c-8.5-.87-15.43,2.1-20.89,8.61-1.11,1.34-2.2,1.62-3.26.78s-1.07-2.09,0-3.36C54.76,1.54,64.33-1.91,75.58,1S93.35,11.54,95.67,22.83A41.35,41.35,0,0,1,96.11,27.44Z"/><path d="M64.56,31.47c2.29-2.73,4.48-5.33,6.66-7.94,1.58-1.88,3.15-3.77,4.74-5.65,1.07-1.26,2.31-1.49,3.29-.64s.93,2.1-.14,3.37Q72.93,28,66.74,35.36c-1.18,1.42-2.23,1.51-3.61.35Q60,33.07,56.87,30.42c-1.18-1-1.41-2.23-.61-3.2s2.06-1,3.35.06C61.21,28.62,62.8,30,64.56,31.47Z"/><path class="b34123ae-5b5c-4500-8135-bc715d1829a9" d="M32.6,103.09c1.55-.87,3-1.72,4.55-2.52a1,1,0,0,1,.86,0c1,.56,2,1.2,3.13,1.88l-5.69,3.67Z"/><path class="b34123ae-5b5c-4500-8135-bc715d1829a9" d="M71.49,115.5H68.64c-1-3.15-1.15-2.22,1.32-4.68C72.19,112.31,72.29,112.61,71.49,115.5Z"/></g></g></svg>